<?xml version="1.0" standalone="no"?>
<!DOCTYPE svg PUBLIC "-//W3C//DTD SVG 20010904//EN"
 "http://www.w3.org/TR/2001/REC-SVG-20010904/DTD/svg10.dtd">
<svg version="1.0" xmlns="http://www.w3.org/2000/svg"
 width="640.000000pt" height="640.000000pt" viewBox="0 0 640.000000 640.000000"
 preserveAspectRatio="xMidYMid meet">
<metadata>
Created by potrace 1.14, written by Peter Selinger 2001-2017
</metadata>
<g transform="translate(0.000000,640.000000) scale(0.100000,-0.100000)"
fill="#000000" stroke="none">
<path d="M3218 6295 c-1 -2 -30 -6 -63 -9 -71 -8 -107 -13 -200 -31 -90 -18
-101 -21 -155 -35 -433 -115 -828 -361 -1113 -694 -23 -26 -50 -58 -61 -70
-48 -55 -180 -266 -234 -377 -53 -109 -132 -319 -146 -390 -2 -13 -11 -53 -20
-89 -39 -165 -51 -286 -49 -500 1 -278 39 -435 198 -840 31 -80 70 -181 85
-225 168 -479 -94 -962 -770 -1421 -302 -204 -420 -317 -420 -399 0 -82 138
-133 360 -133 150 0 232 11 370 50 98 27 167 52 265 98 327 152 504 252 583
330 39 40 39 37 -38 -125 -198 -419 -268 -703 -226 -917 24 -124 83 -221 154
-255 128 -61 339 64 572 336 25 29 50 58 56 65 25 26 203 270 215 294 48 93
205 334 277 425 159 202 298 271 401 198 94 -67 187 -306 227 -586 3 -16 9
-52 14 -80 5 -27 12 -63 15 -80 30 -186 80 -347 142 -460 49 -88 170 -214 242
-250 179 -90 333 22 432 313 50 147 59 227 59 521 0 146 2 279 4 296 3 16 7
52 11 80 10 80 44 180 76 218 78 94 183 42 391 -194 86 -98 104 -119 161 -186
130 -156 328 -334 455 -411 119 -73 297 -106 393 -74 46 16 89 61 98 104 24
108 -104 345 -359 667 -50 63 -101 128 -113 145 l-22 31 35 -25 c84 -60 284
-159 382 -188 41 -12 90 -19 125 -18 47 2 60 7 80 30 12 15 24 35 24 44 1 9 3
28 4 42 4 35 -22 107 -55 155 -61 87 -148 165 -336 300 -188 135 -352 312
-428 463 -104 206 -119 438 -47 722 26 104 93 303 126 375 62 136 128 367 141
495 3 36 8 68 11 72 5 9 4 282 -1 323 -3 17 -8 55 -11 85 -8 66 -8 64 -34 175
-41 169 -122 387 -178 477 -13 21 -23 40 -23 43 0 12 -105 174 -158 245 -308
411 -742 692 -1228 794 -192 40 -267 48 -486 51 -113 2 -208 2 -210 0z"/>
</g>
</svg>
